<?xml version="1.0" standalone="no"?><!DOCTYPE svg PUBLIC "-//W3C//DTD SVG 1.1//EN" "http://www.w3.org/Graphics/SVG/1.1/DTD/svg11.dtd"><svg t="1678112627577" class="icon" viewBox="0 0 1024 1024" version="1.1" xmlns="http://www.w3.org/2000/svg" p-id="10334" xmlns:xlink="http://www.w3.org/1999/xlink" width="200" height="200"><path d="M1021.453227 125.44a1533.44 1533.44 0 0 0-948.906667-25.6A94.72 94.72 0 0 0 3.42656 217.173333c17.066667 68.266667 41.813333 146.773333 71.68 218.026667 0.426667 1.706667 1.28 0.853333 1.28-0.853333-4.266667-33.28 21.333333-75.52 71.68-90.88a1175.893333 1175.893333 0 0 1 741.973333 9.813333c36.693333 12.8 77.653333-7.253333 89.6-45.226667 29.866667-96 41.813333-161.28 44.8-177.493333 0.426667-2.986667-2.133333-4.266667-2.986666-5.12zM284.173227 336.64c-36.693333 7.68-87.466667 19.626667-125.44 32.426667-75.946667 26.026667-72.533333 118.613333-32 148.053333 2.986667-17.066667 21.333333-40.533333 41.813333-48.213333 75.946667-29.866667 157.44-47.786667 239.786667-55.04-41.813333-17.066667-82.773333-41.386667-123.733334-77.226667m604.586667 185.173333a902.826667 902.826667 0 0 0-701.866667-27.733333c-36.266667 13.653333-58.88 57.6-36.266666 99.413333a1628.16 1628.16 0 0 0 134.4 204.8c-7.253333-24.746667 5.546667-70.826667 54.186666-85.76 134.4-41.386667 275.626667-23.893333 369.493334 14.08 26.453333 10.666667 64 4.266667 84.906666-27.306666a1647.786667 1647.786667 0 0 0 97.706667-171.52c1.28-2.56 0-4.693333-2.56-5.973334M671.159893 853.333333a423.253333 423.253333 0 0 1-106.666666-76.8c-14.506667-14.506667-35.84-35.413333-58.453334-60.16-51.2 0-101.12 5.12-154.453333 22.186667-49.493333 15.36-54.186667 72.533333-32.426667 102.4 36.693333 45.653333 62.293333 70.4 103.253334 112.64a116.906667 116.906667 0 0 0 162.986666 0.853333c32-32 51.626667-53.333333 87.893334-94.293333 2.133333-2.133333 1.28-5.973333-2.133334-6.826667" p-id="10335" fill="#13227a"></path></svg>