<?xml version="1.0" standalone="no"?><!DOCTYPE svg PUBLIC "-//W3C//DTD SVG 1.1//EN" "http://www.w3.org/Graphics/SVG/1.1/DTD/svg11.dtd"><svg t="1669800310485" class="icon" viewBox="0 0 1024 1024" version="1.1" xmlns="http://www.w3.org/2000/svg" p-id="11343" xmlns:xlink="http://www.w3.org/1999/xlink" width="200" height="200"><path d="M867.053268 60.840585C818.80039 22.727805 767.125854 4.195902 709.057561 4.195902c-69.632 0-137.865366 26.948683-203.825951 53.02322-64.512 25.450146-125.377561 49.501659-185.493854 49.501658-42.658341 0-81.220683-12.862439-117.535219-38.912V40.185756a37.463415 37.463415 0 0 0-74.92683 0v924.097561a37.463415 37.463415 0 1 0 74.92683 0V570.817561a240.41522 240.41522 0 0 0 117.535219 29.870829c69.632 0 137.84039-26.948683 203.825951-53.023219 64.487024-25.450146 125.352585-49.526634 185.493854-49.526634 46.379707 0 87.939122 15.010341 127.025951 45.90517a24.950634 24.950634 0 0 0 40.460488-19.605853V80.446439c0-7.642537-3.496585-14.860488-9.490732-19.605854z m-490.021463 261.144976c-59.392 12.51278-117.385366 8.791415-174.829268-32.343415V126.976a240.515122 240.515122 0 0 0 117.535219 29.696c19.206244 0 38.312585-2.172878 57.294049-5.694439v171.008z m224.780488 144.209171c-32.643122 9.84039-64.886634 22.478049-96.580683 35.015805-26.648976 10.514732-52.648585 20.70478-78.248586 29.146536v-169.784195c33.092683-9.890341 65.411122-22.602927 96.580683-34.890927 26.424195-10.46478 52.473756-20.729756 78.248586-29.196488v169.709269z m224.780487-209.895025c-58.717659-31.893854-117.610146-34.616195-174.829268-24.126439V60.81561c19.206244-4.071024 38.312585-6.668488 57.294049-6.668488 42.658341 0 81.220683 12.68761 117.535219 38.737171v163.415414z" fill="#231F1F" p-id="11344"></path></svg>